<svg width="41" height="40" viewBox="0 0 41 40" fill="none" xmlns="http://www.w3.org/2000/svg">
  <path
    d="M40.5 20C40.5 8.95431 31.5457 0 20.5 0C9.45431 0 0.5 8.95431 0.5 20C0.5 31.0457 9.45431 40 20.5 40C31.5457 40 40.5 31.0457 40.5 20Z"
    fill="white" />
  <path fill-rule="evenodd" clip-rule="evenodd"
    d="M30.2875 20.2291C30.2875 19.52 30.2239 18.8381 30.1057 18.1836H20.6875V22.0518H26.0693C25.8375 23.3018 25.133 24.3609 24.0739 25.07V27.5791H27.3057C29.1966 25.8382 30.2875 23.2745 30.2875 20.2291Z"
    fill="#518DF6" />
  <path fill-rule="evenodd" clip-rule="evenodd"
    d="M20.6864 29.9985C23.3864 29.9985 25.65 29.103 27.3046 27.5757L24.0728 25.0666C23.1773 25.6666 22.0318 26.0212 20.6864 26.0212C18.0818 26.0212 15.8773 24.2621 15.0909 21.8984H11.75V24.4894C13.3955 27.7575 16.7773 29.9985 20.6864 29.9985Z"
    fill="#28B347" />
  <path fill-rule="evenodd" clip-rule="evenodd"
    d="M15.0921 21.8987C14.8921 21.2987 14.7784 20.6578 14.7784 19.9987C14.7784 19.3396 14.8921 18.6987 15.0921 18.0987V15.5078H11.7511C11.0739 16.8578 10.6875 18.3851 10.6875 19.9987C10.6875 21.6124 11.0739 23.1396 11.7511 24.4897L15.0921 21.8987Z"
    fill="#FABA01" />
  <path fill-rule="evenodd" clip-rule="evenodd"
    d="M20.6864 13.9773C22.1546 13.9773 23.4728 14.4818 24.5091 15.4727L27.3773 12.6046C25.6455 10.9909 23.3818 10 20.6864 10C16.7773 10 13.3955 12.2409 11.75 15.5091L15.0909 18.1C15.8773 15.7364 18.0818 13.9773 20.6864 13.9773Z"
    fill="#F14336" />
</svg>
  