<svg width="120" height="120" viewBox="0 0 41 40" fill="none" xmlns="http://www.w3.org/2000/svg">
  <rect x="0.5" width="40" height="40" rx="20" fill="white" />
  <path
    d="M23.077 14.2896C23.5876 13.6702 23.9475 12.8248 23.9475 11.971C23.9475 11.8538 23.9392 11.7366 23.9224 11.6445C23.0854 11.678 22.0809 12.197 21.4866 12.9001C21.0095 13.4358 20.5742 14.2896 20.5742 15.1434C20.5742 15.2773 20.5993 15.4029 20.6077 15.4448C20.6579 15.4531 20.7416 15.4699 20.8337 15.4699C21.5787 15.4699 22.5162 14.9676 23.077 14.2896ZM23.6629 15.6456C22.4157 15.6456 21.3945 16.4074 20.7416 16.4074C20.0469 16.4074 19.1429 15.6959 18.0547 15.6959C15.9872 15.6959 13.8945 17.4035 13.8945 20.6177C13.8945 22.6267 14.6646 24.7444 15.6272 26.1088C16.4475 27.264 17.1674 28.2098 18.2054 28.2098C19.2266 28.2098 19.6786 27.5318 20.9509 27.5318C22.24 27.5318 22.5329 28.1931 23.6629 28.1931C24.7846 28.1931 25.5296 27.1635 26.2411 26.1507C27.0279 24.9872 27.3627 23.8571 27.3711 23.7985C27.3041 23.7818 25.1613 22.9029 25.1613 20.4503C25.1613 18.3242 26.8438 17.37 26.9442 17.2946C25.8309 15.6959 24.1317 15.6456 23.6629 15.6456Z"
    fill="#060606" />
</svg>
  